<?xml version="1.0" encoding="iso-8859-1"?>
<!-- Generator: Adobe Illustrator 19.0.0, SVG Export Plug-In . SVG Version: 6.00 Build 0)  -->
<svg version="1.1" id="Layer_1" xmlns="http://www.w3.org/2000/svg" xmlns:xlink="http://www.w3.org/1999/xlink" x="0px" y="0px"
	 viewBox="0 0 512.001 512.001" style="enable-background:new 0 0 512.001 512.001;" xml:space="preserve">
<g>
	<g>
		<g>
			<path d="M392.918,0H119.083C103.664,0,91.12,12.545,91.12,27.964v456.074c0,15.419,12.545,27.963,27.965,27.963h24.107
				c4.465,0,8.086-3.619,8.086-8.086c0-4.467-3.62-8.086-8.086-8.086h-24.107c-6.503,0-11.793-5.289-11.793-11.792V27.964
				c0-6.502,5.29-11.792,11.793-11.792h273.835c6.502,0,11.792,5.289,11.792,11.792v456.074c0,6.502-5.29,11.792-11.792,11.792
				h-226.01c-4.465,0-8.086,3.619-8.086,8.086c0,4.466,3.62,8.086,8.086,8.086h226.009c15.42,0,27.964-12.545,27.964-27.963V27.964
				C420.883,12.545,408.338,0,392.918,0z"/>
			<path d="M374.59,98.756c4.467,0,8.086-3.619,8.086-8.086V58.756c0-11.592-9.431-21.023-21.023-21.023H150.348
				c-11.592,0-21.023,9.431-21.023,21.023v167.442v23.672c0,11.592,9.431,21.023,21.023,21.023h211.306
				c11.592,0,21.023-9.431,21.023-21.023v-23.672V114.385c0-4.466-3.619-8.086-8.086-8.086s-8.086,3.619-8.086,8.086v103.728
				H145.496V58.756c0-2.675,2.177-4.851,4.851-4.851h211.306c2.675,0,4.851,2.177,4.851,4.851v31.915
				C366.505,95.136,370.124,98.756,374.59,98.756z M366.505,234.284v15.586c0,2.675-2.177,4.851-4.851,4.851H150.348
				c-2.675,0-4.851-2.177-4.851-4.851v-15.586H366.505z"/>
			<path d="M256.001,485.423c56.165,0,101.86-45.687,101.874-101.85c0-0.01,0.001-0.018,0.001-0.027c0-0.01-0.001-0.019-0.001-0.028
				c-0.017-56.161-45.711-101.845-101.874-101.845c-56.174,0-101.874,45.699-101.875,101.873v0.001
				C154.125,439.722,199.827,485.423,256.001,485.423z M264.086,468.858v-16.264c31.888-3.712,57.25-29.075,60.961-60.964h16.264
				C337.473,432.447,304.902,465.02,264.086,468.858z M264.086,298.236c40.813,3.838,73.385,36.409,77.225,77.224h-16.264
				c-3.713-31.887-29.074-57.248-60.961-60.959V298.236z M309.361,383.548c0,29.423-23.937,53.361-53.36,53.361
				s-53.361-23.938-53.361-53.361s23.938-53.361,53.361-53.361S309.361,354.125,309.361,383.548z M247.915,298.236V314.5
				c-31.888,3.712-57.249,29.072-60.962,60.959h-16.264C174.529,334.646,207.101,302.074,247.915,298.236z M186.953,391.631
				c3.711,31.889,29.073,57.252,60.962,60.964v16.264c-40.815-3.839-73.388-36.413-77.226-77.228H186.953z"/>
			<path d="M256.002,409.601c14.366,0,26.053-11.689,26.053-26.055c0-14.366-11.688-26.053-26.053-26.053
				c-14.367,0-26.054,11.688-26.054,26.053C229.947,397.912,241.635,409.601,256.002,409.601z M256.002,373.664
				c5.449,0,9.882,4.433,9.882,9.882c0,5.451-4.433,9.884-9.882,9.884c-5.45,0-9.883-4.433-9.883-9.884
				C246.119,378.097,250.552,373.664,256.002,373.664z"/>
			<path d="M335.775,82.23H220.903c-4.465,0-8.086,3.619-8.086,8.086c0,4.466,3.62,8.086,8.086,8.086h114.872
				c4.467,0,8.086-3.619,8.086-8.086C343.861,85.849,340.241,82.23,335.775,82.23z"/>
			<path d="M335.775,128.5H220.903c-4.465,0-8.086,3.619-8.086,8.086c0,4.466,3.62,8.086,8.086,8.086h114.872
				c4.467,0,8.086-3.619,8.086-8.086C343.861,132.119,340.241,128.5,335.775,128.5z"/>
			<path d="M335.775,174.769H220.903c-4.465,0-8.086,3.619-8.086,8.086c0,4.466,3.62,8.086,8.086,8.086h114.872
				c4.467,0,8.086-3.619,8.086-8.086C343.861,178.388,340.241,174.769,335.775,174.769z"/>
			<path d="M202.453,81.705c0-6.166-5.016-11.182-11.182-11.182H174.05c-6.166,0-11.182,5.016-11.182,11.182v17.222
				c0,6.166,5.016,11.181,11.182,11.181h17.221c6.166,0,11.182-5.015,11.182-11.181V81.705z M186.282,93.937h-7.243v-7.243h7.243
				V93.937z"/>
			<path d="M202.453,127.975c0-6.166-5.016-11.182-11.182-11.182H174.05c-6.166,0-11.182,5.016-11.182,11.182v17.222
				c0,6.166,5.016,11.182,11.182,11.182h17.221c6.166,0,11.182-5.016,11.182-11.182V127.975z M186.282,140.208h-7.243v-7.244h7.243
				V140.208z"/>
			<path d="M191.271,163.062H174.05c-6.166,0-11.182,5.016-11.182,11.182v17.222c0,6.166,5.016,11.182,11.182,11.182h17.221
				c6.166,0,11.182-5.016,11.182-11.182v-17.222C202.453,168.079,197.437,163.062,191.271,163.062z M186.282,186.477h-7.243v-7.244
				h7.243V186.477z"/>
		</g>
	</g>
</g>
<g>
</g>
<g>
</g>
<g>
</g>
<g>
</g>
<g>
</g>
<g>
</g>
<g>
</g>
<g>
</g>
<g>
</g>
<g>
</g>
<g>
</g>
<g>
</g>
<g>
</g>
<g>
</g>
<g>
</g>
</svg>
