<?xml version="1.0" encoding="iso-8859-1"?>
<!-- Generator: Adobe Illustrator 16.0.0, SVG Export Plug-In . SVG Version: 6.00 Build 0)  -->
<!DOCTYPE svg PUBLIC "-//W3C//DTD SVG 1.1//EN" "http://www.w3.org/Graphics/SVG/1.1/DTD/svg11.dtd">
<svg version="1.1" id="Capa_1" xmlns="http://www.w3.org/2000/svg" xmlns:xlink="http://www.w3.org/1999/xlink" x="0px" y="0px"
	 width="490.919px" height="490.919px" viewBox="0 0 490.919 490.919" style="enable-background:new 0 0 490.919 490.919;"
	 xml:space="preserve">
<g>
	<g>
		<path d="M407.455,101.104l10.754-34.583c5.895-18.974-1.535-39.872-18.072-50.86L386.65,6.712C382.12,3.709,372.765,0,363.816,0
			c-5.094,0-237.034,0.032-237.355,0.032c-7.922,0-15.598,2.312-22.203,6.712l-13.436,8.902c-16.554,10.988-24,31.901-18.097,50.859
			l10.754,34.584c-21.203,1.463-38.007,18.958-38.007,40.529V450.1c0,22.536,18.271,40.819,40.819,40.819h127.548l8.747-171.501
			l-24.753-24.758c-4.725-4.722-4.725-12.385,0-17.105l38.844-38.844c4.721-4.725,12.385-4.725,17.11,0l38.848,38.844
			c2.272,2.267,3.55,5.332,3.55,8.545s-1.277,6.295-3.542,8.562l-24.559,24.562l8.777,171.695h127.768
			c22.543,0,40.817-18.283,40.817-40.819V141.617C445.447,120.062,428.658,102.583,407.455,101.104z M386.796,56.737
			l-49.119,157.911c-1.285,4.125-4.688,7.259-8.93,8.207c-0.869,0.194-1.752,0.29-2.617,0.29c-3.369,0-6.629-1.396-8.949-3.951
			l-48.571-53.335c-3.99-4.384-4.217-11.004-0.536-15.662l90.73-114.521c1.42-1.785,3.531-2.749,5.67-2.749
			c1.379,0,2.773,0.401,3.998,1.222l13.465,8.913C386.412,46.039,388.394,51.597,386.796,56.737z M320.113,31.532l-74.649,94.233
			l-74.641-94.233H320.113z M109.005,43.063l13.456-8.913c1.226-0.821,2.618-1.222,3.999-1.222c2.138,0,4.249,0.964,5.668,2.749
			l90.723,114.521c3.689,4.657,3.455,11.278-0.536,15.662l-48.555,53.319c-2.321,2.571-5.582,3.967-8.949,3.967
			c-0.865,0-1.75-0.095-2.618-0.29c-4.241-0.948-7.645-4.082-8.93-8.224L104.138,56.737
			C102.54,51.597,104.523,46.039,109.005,43.063z"/>
	</g>
</g>
<g>
</g>
<g>
</g>
<g>
</g>
<g>
</g>
<g>
</g>
<g>
</g>
<g>
</g>
<g>
</g>
<g>
</g>
<g>
</g>
<g>
</g>
<g>
</g>
<g>
</g>
<g>
</g>
<g>
</g>
</svg>
