<?xml version="1.0" encoding="iso-8859-1"?>
<!-- Generator: Adobe Illustrator 18.0.0, SVG Export Plug-In . SVG Version: 6.00 Build 0)  -->
<!DOCTYPE svg PUBLIC "-//W3C//DTD SVG 1.1//EN" "http://www.w3.org/Graphics/SVG/1.1/DTD/svg11.dtd">
<svg version="1.1" id="Capa_1" xmlns="http://www.w3.org/2000/svg" xmlns:xlink="http://www.w3.org/1999/xlink" x="0px" y="0px"
	 viewBox="0 0 296.157 296.157" style="enable-background:new 0 0 296.157 296.157;" xml:space="preserve">
<g>
	<path d="M271.537,136.697L217.004,13.81c-2.9-6.523-8.553-11.69-15.877-13.809l1.944,36.373c0.231,4.293-3.193,7.9-7.489,7.9
		c-2.176,0-3.816,0-5.871,0c4.458,11.042,3.705,9.178,4.606,11.41c1.67,4.134-0.629,8.723-4.77,9.982l-58.338,17.76l-3.001,4.424
		c0,2.355,0,196.272,0,208.306h93.406c5.263,0,9.341-4.616,8.692-9.839L203.624,71.41l39.836,79.041
		c1.848,3.655,6.246,5.066,9.87,3.265l14.776-7.462C271.615,144.493,273.119,140.286,271.537,136.697z M195.583,176.042
		c0,13.118-10.634,23.752-23.752,23.752c-13.118,0-23.752-10.634-23.752-23.752V152.91c0-2.628,2.131-4.759,4.759-4.759h37.986
		c2.628,0,4.759,2.131,4.759,4.759V176.042z"/>
	<path d="M168.59,1.6c-4.932,3.653-12.289,5.974-20.512,5.974c-8.221,0-15.576-2.32-20.508-5.971l20.509,30.234L168.59,1.6z"/>
	<path d="M101.84,55.684c2.24-5.549,2.566-6.355,4.606-11.409c-2.054,0-3.698,0-5.871,0c-4.3,0-7.719-3.611-7.489-7.9L95.03,0
		c-7.2,2.075-12.928,7.18-15.876,13.81L24.622,136.697c-1.583,3.589-0.089,7.796,3.421,9.556l14.766,7.442
		c3.67,1.856,8.065,0.363,9.881-3.245l39.884-79.119L65.852,286.317c-0.649,5.223,3.429,9.84,8.692,9.84h38.664
		c0-7.908,0-202.715,0-210.61c0-1.501,0.45-2.968,1.293-4.21l7.461-10.999l-15.352-4.67C102.465,64.405,100.17,59.821,101.84,55.684
		z"/>
	<path d="M124.518,39.583l-5.701,14.119l11.962,3.639l8.238-12.144L110.443,3.074h-0.556l-1.4,26.2h9.077
		C122.872,29.274,126.508,34.654,124.518,39.583z"/>
	<path d="M177.342,53.703l-5.701-14.121c-1.988-4.921,1.64-10.308,6.954-10.308h9.076l-1.4-26.2h-0.555l-41.102,60.592
		L177.342,53.703z"/>
</g>
<g>
</g>
<g>
</g>
<g>
</g>
<g>
</g>
<g>
</g>
<g>
</g>
<g>
</g>
<g>
</g>
<g>
</g>
<g>
</g>
<g>
</g>
<g>
</g>
<g>
</g>
<g>
</g>
<g>
</g>
</svg>
